<svg width="16" height="17" viewBox="0 0 16 17" fill="none" xmlns="http://www.w3.org/2000/svg">
<g clip-path="url(#clip0_54_1281)">
<path d="M3.46667 0.5C1.56459 0.5 0 2.06459 0 3.96667V13.0333C0 14.9354 1.56459 16.5 3.46667 16.5H8.04208C9.80889 16.5 11.2836 15.1498 11.4846 13.4333H9.31828C9.15525 13.9843 8.65876 14.3667 8.04208 14.3667H3.46667C2.70955 14.3667 2.13333 13.7904 2.13333 13.0333V3.96667C2.13333 3.20955 2.70955 2.63333 3.46667 2.63333H8.04208C8.65876 2.63333 9.15525 3.01573 9.31828 3.56667H11.4846C11.2836 1.85021 9.80889 0.5 8.04208 0.5H3.46667Z" fill="white"/>
<path d="M12.7163 5.29999C12.5762 5.29998 12.4375 5.32757 12.3081 5.38117C12.1787 5.43477 12.0611 5.51334 11.962 5.61238C11.863 5.71143 11.7844 5.82902 11.7308 5.95844C11.6772 6.08786 11.6496 6.22657 11.6496 6.36665C11.6496 6.50674 11.6772 6.64545 11.7308 6.77487C11.7844 6.90428 11.863 7.02188 11.962 7.12093L12.2744 7.43332H4.36598C4.08309 7.43332 3.81177 7.5457 3.61174 7.74574C3.4117 7.94578 3.29932 8.21709 3.29932 8.49999C3.29932 8.78289 3.4117 9.0542 3.61174 9.25424C3.81177 9.45427 4.08309 9.56665 4.36598 9.56665H12.2744L11.962 9.87905C11.863 9.9781 11.7844 10.0957 11.7308 10.2251C11.6772 10.3545 11.6496 10.4932 11.6496 10.6333C11.6496 10.7734 11.6772 10.9121 11.7308 11.0415C11.7844 11.171 11.863 11.2885 11.962 11.3876C12.0611 11.4866 12.1787 11.5652 12.3081 11.6188C12.4375 11.6724 12.5762 11.7 12.7163 11.7C12.8564 11.7 12.9951 11.6724 13.1245 11.6188C13.2539 11.5652 13.3715 11.4866 13.4706 11.3876L15.4117 9.4465C15.5874 9.3583 15.7354 9.22322 15.8392 9.05618C15.9431 8.88914 15.9987 8.69665 15.9999 8.49999C15.9997 8.30031 15.9434 8.10471 15.8375 7.93544C15.7315 7.76618 15.5802 7.63005 15.4007 7.54254L13.4706 5.61238C13.3715 5.51334 13.2539 5.43477 13.1245 5.38117C12.9951 5.32757 12.8564 5.29998 12.7163 5.29999Z" fill="white"/>
</g>
<defs>
<clipPath id="clip0_54_1281">
<rect width="16" height="16" fill="white" transform="translate(0 0.5)"/>
</clipPath>
</defs>
</svg>
