<svg width="16" height="17" viewBox="0 0 16 17" fill="none" xmlns="http://www.w3.org/2000/svg">
<path fill-rule="evenodd" clip-rule="evenodd" d="M13.25 14.9H2.75054C2.18543 14.9 1.76812 14.3424 1.98126 13.8296C2.97021 11.4584 5.29355 10.1 7.99988 10.1C10.707 10.1 13.0304 11.4584 14.0193 13.8296C14.2325 14.3424 13.8152 14.9 13.25 14.9ZM4.73333 5.29999C4.73333 3.53519 6.1992 2.09999 7.99988 2.09999C9.80138 2.09999 11.2664 3.53519 11.2664 5.29999C11.2664 7.06479 9.80138 8.49999 7.99988 8.49999C6.1992 8.49999 4.73333 7.06479 4.73333 5.29999ZM15.9645 14.6088C15.3708 11.9216 13.5138 9.93837 11.0696 9.03837C12.3648 8.01677 13.1202 6.36475 12.8425 4.55594C12.5208 2.45755 10.7389 0.778381 8.58786 0.533581C5.61857 0.195181 3.10006 2.45919 3.10006 5.29999C3.10006 6.81199 3.81543 8.15917 4.93096 9.03837C2.48595 9.93837 0.629731 11.9216 0.0352192 14.6088C-0.180373 15.5856 0.623199 16.5 1.64318 16.5H14.3566C15.3774 16.5 16.181 15.5856 15.9645 14.6088Z" fill="white"/>
</svg>
