<svg width="42" height="42" viewBox="0 0 42 42" fill="none" xmlns="http://www.w3.org/2000/svg">
<path d="M42 21C42 32.598 32.598 42 21 42C9.40202 42 0 32.598 0 21C0 9.40202 9.40202 0 21 0C32.598 0 42 9.40202 42 21Z" fill="#CC0062"/>
<path d="M22.5978 9.1875C24.486 9.1875 26.0217 10.7356 26.0217 12.6391V13.3294H29.6739C30.6824 13.3294 31.5 14.1536 31.5 15.1702C31.5 16.1868 30.6824 17.011 29.6739 17.011H29.5678L28.9107 28.9378C28.7956 31.0239 27.0814 32.6581 25.0088 32.6581H16.9912C14.9186 32.6581 13.2044 31.0239 13.0893 28.9378L12.4322 17.011H12.3261C11.3176 17.011 10.5 16.1868 10.5 15.1702C10.5 14.1536 11.3176 13.3294 12.3261 13.3294H15.9783V12.6391C15.9783 10.7356 17.514 9.1875 19.4022 9.1875H22.5978ZM22.5978 12.409H19.4022C19.2766 12.409 19.1739 12.512 19.1739 12.6391V13.3294H22.8261V12.6391C22.8261 12.512 22.7234 12.409 22.5978 12.409ZM21 17.9314C20.496 17.9314 20.087 18.3438 20.087 18.8519V27.1005C20.087 27.6091 20.496 28.021 21 28.021C21.504 28.021 21.913 27.6086 21.913 27.1005V18.8519C21.913 18.3438 21.504 17.9314 21 17.9314ZM24.9295 17.9323C24.4424 17.9222 24.003 18.3123 23.9852 18.8204L23.6999 27.1041C23.6826 27.6122 24.0777 28.0372 24.5817 28.0551C24.5922 28.0556 24.6024 28.056 24.6129 28.056C25.1028 28.056 25.5077 27.6641 25.5251 27.1671L25.8104 18.8833C25.8278 18.3752 25.4335 17.9503 24.9295 17.9323ZM17.0705 17.9323C16.5665 17.9498 16.1722 18.3752 16.1896 18.8833L16.4749 27.1671C16.4923 27.6641 16.8977 28.056 17.3871 28.056C17.3976 28.056 17.4078 28.0556 17.4183 28.0551C17.9223 28.0376 18.3174 27.6122 18.3001 27.1041L18.0148 18.8204C17.9974 18.3123 17.5677 17.9222 17.0705 17.9323Z" fill="white"/>
</svg>
